#Comment line ignore any data following # character 
#Hierarchical Translation and Rotation (.htr) file 
[Header]	
#Header keywords are followed by a single value 
FileType HTR		#Single word string
DataType HTRS		#Translation followed by rotation and scale data
FileVersion 1		#integer
NumSegments 84		#integer
NumFrames 2		#integer
DataFrameRate 30		#integer, data frame rate in this file
EulerRotationOrder ZYX
CalibrationUnits mm
RotationUnits Degrees
GlobalAxisofGravity Y
BoneLengthAxis Y
ScaleFactor 1.00
[SegmentNames&Hierarchy]
#CHILD	PARENT
MASTER GLOBAL
root MASTER
chest root
L_mid_tent01 root
R_mid_tent01 root
spine01 root
Bip01_Neck chest
L_humerus chest
R_humerus chest
weapon_bone chest
Bip01_Head Bip01_Neck
eye_left_bone Bip01_Head
eye_right_bone Bip01_Head
L_forearm L_humerus
L_front_hand L_forearm
L_weapon_bone L_forearm
L_front_hand01_01 L_front_hand
L_front_hand02_01 L_front_hand
L_front_hand03_01 L_front_hand
L_front_hand01_02 L_front_hand01_01
L_front_hand02_02 L_front_hand02_01
L_front_hand03_02 L_front_hand03_01
R_forearm R_humerus
R_front_hand R_forearm
R_weapon_bone R_forearm
R_front_hand01_01 R_front_hand
R_front_hand02_01 R_front_hand
R_front_hand03_01 R_front_hand
R_front_hand01_02 R_front_hand01_01
R_front_hand02_02 R_front_hand02_01
R_front_hand03_02 R_front_hand03_01
null_rope01_connect L_mid_tent01
Rope1_Seg01 null_rope01_connect
Rope1_Seg02 Rope1_Seg01
Rope1_Seg03 Rope1_Seg02
Rope1_Seg04 Rope1_Seg03
Rope1_Seg05 Rope1_Seg04
Rope1_Seg06 Rope1_Seg05
Rope1_Seg07 Rope1_Seg06
Rope1_Seg09 Rope1_Seg07
L_mid_hand01 Rope1_Seg09
L_mid_hand02 Rope1_Seg09
L_mid_hand03 Rope1_Seg09
null_rope02_connect R_mid_tent01
Rope2_Seg01 null_rope02_connect
Rope2_Seg02 Rope2_Seg01
Rope2_Seg03 Rope2_Seg02
Rope2_Seg04 Rope2_Seg03
Rope2_Seg05 Rope2_Seg04
Rope2_Seg06 Rope2_Seg05
Rope2_Seg07 Rope2_Seg06
Rope2_Seg09 Rope2_Seg07
R_mid_hand01 Rope2_Seg09
R_mid_hand02 Rope2_Seg09
R_mid_hand03 Rope2_Seg09
spine02 spine01
spine03 spine02
pelvis spine03
null_rope03_connect pelvis
null_rope04_connect pelvis
Rope3_Seg01 null_rope03_connect
Rope3_Seg02 Rope3_Seg01
Rope3_Seg03 Rope3_Seg02
Rope3_Seg04 Rope3_Seg03
Rope3_Seg05 Rope3_Seg04
Rope3_Seg06 Rope3_Seg05
Rope3_Seg07 Rope3_Seg06
Rope3_Seg08 Rope3_Seg07
Rope3_Seg09 Rope3_Seg08
R_rear_hand01 Rope3_Seg09
R_rear_hand02 Rope3_Seg09
R_rear_hand03 Rope3_Seg09
Rope4_Seg01 null_rope04_connect
Rope4_Seg02 Rope4_Seg01
Rope4_Seg03 Rope4_Seg02
Rope4_Seg04 Rope4_Seg03
Rope4_Seg05 Rope4_Seg04
Rope4_Seg06 Rope4_Seg05
Rope4_Seg07 Rope4_Seg06
Rope4_Seg08 Rope4_Seg07
Rope4_Seg09 Rope4_Seg08
L_rear_hand01 Rope4_Seg09
L_rear_hand02 Rope4_Seg09
L_rear_hand03 Rope4_Seg09
[BasePosition]
#SegmentName Tx, Ty, Tz, Rx, Ry, Rz, BoneLength
MASTER 0.000000 0.000000 0.000000 -90.000000 0.000000 0.000000 10.000000 
root 0.000000 0.000000 0.000000 0.000000 0.000000 0.000000 10.000000 
chest 0.000000 0.000000 0.000000 0.000000 0.000000 0.000000 10.000000 
L_mid_tent01 0.000000 0.000000 0.000000 0.000000 0.000000 0.000000 10.000000 
R_mid_tent01 0.000000 0.000000 0.000000 0.000000 0.000000 0.000000 10.000000 
spine01 0.000000 0.000000 0.000000 0.000000 0.000000 0.000000 10.000000 
Bip01_Neck 0.000000 0.000000 0.000000 0.000000 0.000000 0.000000 10.000000 
L_humerus 0.000000 0.000000 0.000000 0.000000 0.000000 0.000000 10.000000 
R_humerus 0.000000 0.000000 0.000000 0.000000 0.000000 0.000000 10.000000 
weapon_bone 0.000000 0.000000 0.000000 0.000000 0.000000 0.000000 10.000000 
Bip01_Head 0.000000 0.000000 0.000000 0.000000 0.000000 0.000000 10.000000 
eye_left_bone 0.000000 0.000000 0.000000 0.000000 0.000000 0.000000 10.000000 
eye_right_bone 0.000000 0.000000 0.000000 0.000000 0.000000 0.000000 10.000000 
L_forearm 0.000000 0.000000 0.000000 0.000000 0.000000 0.000000 10.000000 
L_front_hand 0.000000 0.000000 0.000000 0.000000 0.000000 0.000000 10.000000 
L_weapon_bone 0.000000 0.000000 0.000000 0.000000 0.000000 0.000000 10.000000 
L_front_hand01_01 0.000000 0.000000 0.000000 0.000000 0.000000 0.000000 10.000000 
L_front_hand02_01 0.000000 0.000000 0.000000 0.000000 0.000000 0.000000 10.000000 
L_front_hand03_01 0.000000 0.000000 0.000000 0.000000 0.000000 0.000000 10.000000 
L_front_hand01_02 0.000000 0.000000 0.000000 0.000000 0.000000 0.000000 10.000000 
L_front_hand02_02 0.000000 0.000000 0.000000 0.000000 0.000000 0.000000 10.000000 
L_front_hand03_02 0.000000 0.000000 0.000000 0.000000 0.000000 0.000000 10.000000 
R_forearm 0.000000 0.000000 0.000000 0.000000 0.000000 0.000000 10.000000 
R_front_hand 0.000000 0.000000 0.000000 0.000000 0.000000 0.000000 10.000000 
R_weapon_bone 0.000000 0.000000 0.000000 0.000000 0.000000 0.000000 10.000000 
R_front_hand01_01 0.000000 0.000000 0.000000 0.000000 0.000000 0.000000 10.000000 
R_front_hand02_01 0.000000 0.000000 0.000000 0.000000 0.000000 0.000000 10.000000 
R_front_hand03_01 0.000000 0.000000 0.000000 0.000000 0.000000 0.000000 10.000000 
R_front_hand01_02 0.000000 0.000000 0.000000 0.000000 0.000000 0.000000 10.000000 
R_front_hand02_02 0.000000 0.000000 0.000000 0.000000 0.000000 0.000000 10.000000 
R_front_hand03_02 0.000000 0.000000 0.000000 0.000000 0.000000 0.000000 10.000000 
null_rope01_connect 0.000000 0.000000 0.000000 0.000000 0.000000 0.000000 10.000000 
Rope1_Seg01 0.000000 0.000000 0.000000 0.000000 0.000000 0.000000 10.000000 
Rope1_Seg02 0.000000 0.000000 0.000000 0.000000 0.000000 0.000000 10.000000 
Rope1_Seg03 0.000000 0.000000 0.000000 0.000000 0.000000 0.000000 10.000000 
Rope1_Seg04 0.000000 0.000000 0.000000 0.000000 0.000000 0.000000 10.000000 
Rope1_Seg05 0.000000 0.000000 0.000000 0.000000 0.000000 0.000000 10.000000 
Rope1_Seg06 0.000000 0.000000 0.000000 0.000000 0.000000 0.000000 10.000000 
Rope1_Seg07 0.000000 0.000000 0.000000 0.000000 0.000000 0.000000 10.000000 
Rope1_Seg09 0.000000 0.000000 0.000000 0.000000 0.000000 0.000000 10.000000 
L_mid_hand01 0.000000 0.000000 0.000000 0.000000 0.000000 0.000000 10.000000 
L_mid_hand02 0.000000 0.000000 0.000000 0.000000 0.000000 0.000000 10.000000 
L_mid_hand03 0.000000 0.000000 0.000000 0.000000 0.000000 0.000000 10.000000 
null_rope02_connect 0.000000 0.000000 0.000000 0.000000 0.000000 0.000000 10.000000 
Rope2_Seg01 0.000000 0.000000 0.000000 0.000000 0.000000 0.000000 10.000000 
Rope2_Seg02 0.000000 0.000000 0.000000 0.000000 0.000000 0.000000 10.000000 
Rope2_Seg03 0.000000 0.000000 0.000000 0.000000 0.000000 0.000000 10.000000 
Rope2_Seg04 0.000000 0.000000 0.000000 0.000000 0.000000 0.000000 10.000000 
Rope2_Seg05 0.000000 0.000000 0.000000 0.000000 0.000000 0.000000 10.000000 
Rope2_Seg06 0.000000 0.000000 0.000000 0.000000 0.000000 0.000000 10.000000 
Rope2_Seg07 0.000000 0.000000 0.000000 0.000000 0.000000 0.000000 10.000000 
Rope2_Seg09 0.000000 0.000000 0.000000 0.000000 0.000000 0.000000 10.000000 
R_mid_hand01 0.000000 0.000000 0.000000 0.000000 0.000000 0.000000 10.000000 
R_mid_hand02 0.000000 0.000000 0.000000 0.000000 0.000000 0.000000 10.000000 
R_mid_hand03 0.000000 0.000000 0.000000 0.000000 0.000000 0.000000 10.000000 
spine02 0.000000 0.000000 0.000000 0.000000 0.000000 0.000000 10.000000 
spine03 0.000000 0.000000 0.000000 0.000000 0.000000 0.000000 10.000000 
pelvis 0.000000 0.000000 0.000000 0.000000 0.000000 0.000000 10.000000 
null_rope03_connect 0.000000 0.000000 0.000000 0.000000 0.000000 0.000000 10.000000 
null_rope04_connect 0.000000 0.000000 0.000000 0.000000 0.000000 0.000000 10.000000 
Rope3_Seg01 0.000000 0.000000 0.000000 0.000000 0.000000 0.000000 10.000000 
Rope3_Seg02 0.000000 0.000000 0.000000 0.000000 0.000000 0.000000 10.000000 
Rope3_Seg03 0.000000 0.000000 0.000000 0.000000 0.000000 0.000000 10.000000 
Rope3_Seg04 0.000000 0.000000 0.000000 0.000000 0.000000 0.000000 10.000000 
Rope3_Seg05 0.000000 0.000000 0.000000 0.000000 0.000000 0.000000 10.000000 
Rope3_Seg06 0.000000 0.000000 0.000000 0.000000 0.000000 0.000000 10.000000 
Rope3_Seg07 0.000000 0.000000 0.000000 0.000000 0.000000 0.000000 10.000000 
Rope3_Seg08 0.000000 0.000000 0.000000 0.000000 0.000000 0.000000 10.000000 
Rope3_Seg09 0.000000 0.000000 0.000000 0.000000 0.000000 0.000000 10.000000 
R_rear_hand01 0.000000 0.000000 0.000000 0.000000 0.000000 0.000000 10.000000 
R_rear_hand02 0.000000 0.000000 0.000000 0.000000 0.000000 0.000000 10.000000 
R_rear_hand03 0.000000 0.000000 0.000000 0.000000 0.000000 0.000000 10.000000 
Rope4_Seg01 0.000000 0.000000 0.000000 0.000000 0.000000 0.000000 10.000000 
Rope4_Seg02 0.000000 0.000000 0.000000 0.000000 0.000000 0.000000 10.000000 
Rope4_Seg03 0.000000 0.000000 0.000000 0.000000 0.000000 0.000000 10.000000 
Rope4_Seg04 0.000000 0.000000 0.000000 0.000000 0.000000 0.000000 10.000000 
Rope4_Seg05 0.000000 0.000000 0.000000 0.000000 0.000000 0.000000 10.000000 
Rope4_Seg06 0.000000 0.000000 0.000000 0.000000 0.000000 0.000000 10.000000 
Rope4_Seg07 0.000000 0.000000 0.000000 0.000000 0.000000 0.000000 10.000000 
Rope4_Seg08 0.000000 0.000000 0.000000 0.000000 0.000000 0.000000 10.000000 
Rope4_Seg09 0.000000 0.000000 0.000000 0.000000 0.000000 0.000000 10.000000 
L_rear_hand01 0.000000 0.000000 0.000000 0.000000 0.000000 0.000000 10.000000 
L_rear_hand02 0.000000 0.000000 0.000000 0.000000 0.000000 0.000000 10.000000 
L_rear_hand03 0.000000 0.000000 0.000000 0.000000 0.000000 0.000000 10.000000 
#Beginning of Data. Separated by tabs
#Fr	Tx	Ty	Tz	Rx	Ry	Rz	SF
[MASTER]
9 -980.698975 -0.000148 0.000000 0.001660 0.001660 0.001660 980.699036
10 -1146.588623 -0.000173 0.000000 0.001660 0.001660 0.001660 1146.588623
[root]
9 -16.502304 -62.822117 1161.964355 25.194347 -27.678835 -90.148956 1163.778320
10 -16.502304 -62.822117 1170.619873 39.606735 -27.678213 -90.147751 1172.420410
[chest]
9 -84.512650 -34.090519 0.000000 124.749802 6.301877 173.450485 91.129311
10 -84.512650 -34.090519 0.000000 138.767365 8.586655 173.610703 91.129311
[L_mid_tent01]
9 27.514936 22.054077 -251.302567 -30.525080 0.806007 15.839606 253.764542
10 27.529448 22.045744 -251.395798 -30.630564 0.275105 15.283943 253.857681
[R_mid_tent01]
9 23.228794 24.509907 226.238495 -156.409805 -47.364151 29.467154 228.744751
10 23.228794 24.509907 226.238495 -157.437576 -47.704998 30.932182 228.744751
[spine01]
9 -0.361383 -0.195265 0.000000 15.105933 1.359856 -4.254618 0.410763
10 -0.361383 -0.195265 0.000000 18.470665 1.543699 -4.423934 0.410763
[Bip01_Neck]
9 165.484543 71.581718 0.000119 175.896118 1.177290 24.871183 180.302734
10 165.484543 71.581718 0.000119 175.896118 1.177290 24.871183 180.302734
[L_humerus]
9 -13.983130 -135.272980 -120.471481 170.940796 81.564224 -99.189163 181.680161
10 -13.983130 -135.272980 -120.471481 170.940796 81.564224 -99.189163 181.680161
[R_humerus]
9 -13.983309 -135.273102 125.287651 -159.666046 -68.957870 -101.166077 184.909012
10 -13.983309 -135.273102 125.287651 -159.666046 -68.957870 -101.166077 184.909012
[weapon_bone]
9 235.964890 -300.705902 0.000000 0.000000 -89.951546 -128.212341 382.234833
10 235.964890 -300.705902 0.000000 0.000000 -89.951546 -128.212341 382.234833
[Bip01_Head]
9 261.355835 108.959442 -2.864191 2.248029 5.843377 -62.458344 283.173523
10 261.355835 108.959457 -2.864185 2.248029 5.843378 -62.458351 283.173523
[eye_left_bone]
9 -24.626970 125.451866 -64.772606 0.000000 -90.000000 -99.840431 143.318359
10 -24.626970 125.451866 -64.772606 0.000000 -90.000000 -99.840431 143.318359
[eye_right_bone]
9 -24.626970 125.451866 64.327362 0.000000 -89.972023 80.159393 143.117676
10 -24.626970 125.451866 64.327362 0.000000 -89.960434 80.159386 143.117676
[L_forearm]
9 322.776093 0.000000 -0.000119 0.000471 0.002300 -66.859383 322.776093
10 322.776093 0.000000 -0.000119 0.000471 0.002300 -66.859398 322.776093
[L_front_hand]
9 241.149185 -0.042021 -3.300071 -178.667953 -1.835447 -27.422342 241.171753
10 241.149185 -0.042021 -3.300071 -178.667953 -1.835447 -27.422350 241.171753
[L_weapon_bone]
9 156.183838 0.000000 0.000000 0.001832 0.001468 12.603963 156.183838
10 156.183838 0.000000 0.000000 0.001747 0.001567 6.221445 156.183838
[L_front_hand01_01]
9 86.095154 20.947098 -0.655860 0.396574 -0.451235 -3.531733 88.609184
10 86.095154 20.947098 -0.655860 0.386557 -0.460766 -2.225620 88.609184
[L_front_hand02_01]
9 86.935165 -11.437475 24.513514 116.931763 2.655337 1.001631 91.046425
10 86.935165 -11.437475 24.513514 116.911629 1.498216 0.411245 91.046425
[L_front_hand03_01]
9 86.637497 -14.123976 -20.424902 -118.383858 -3.701194 -0.673361 90.126129
10 86.637497 -14.123976 -20.424902 -118.351990 -2.554585 -1.292111 90.126129
[L_front_hand01_02]
9 71.020905 -0.000179 0.000030 0.001432 0.001860 -14.807318 71.020905
10 71.020905 -0.000179 0.000030 0.001389 0.001892 -17.424763 71.020905
[L_front_hand02_02]
9 71.020927 -0.000119 0.000060 0.001432 0.001860 -14.807318 71.020927
10 71.020927 -0.000119 0.000060 0.001389 0.001892 -17.424763 71.020927
[L_front_hand03_02]
9 71.020905 -0.000060 0.000060 0.001432 0.001860 -14.807318 71.020905
10 71.020905 -0.000060 0.000060 0.001389 0.001892 -17.424763 71.020905
[R_forearm]
9 322.776428 -0.000060 0.000030 0.199694 -0.075621 -69.903069 322.776428
10 322.776428 -0.000060 0.000030 0.199694 -0.075621 -69.903069 322.776428
[R_front_hand]
9 238.847015 -0.006795 2.210259 -1.531694 0.790216 -51.443054 238.857239
10 238.847015 -0.006795 2.210259 -1.531694 0.790216 -51.443054 238.857239
[R_weapon_bone]
9 155.664093 0.002503 -0.000030 0.003257 0.001714 -109.122841 155.664078
10 155.664093 0.002503 -0.000030 0.003382 0.001453 -100.120834 155.664078
[R_front_hand01_01]
9 87.624611 14.231146 22.918642 -116.933342 2.525438 -0.827848 91.683487
10 87.624611 14.231146 22.918642 -116.914330 1.364122 -0.240128 91.683487
[R_front_hand02_01]
9 89.356956 14.367283 -19.491137 118.386032 -3.297761 1.127762 92.579636
10 89.356956 14.367283 -19.491137 118.357018 -2.151179 1.746258 92.579636
[R_front_hand03_01]
9 87.286232 -22.307278 -0.143439 -0.385889 -0.240080 3.143404 90.091743
10 87.286232 -22.307278 -0.143439 -0.378274 -0.249470 1.842370 90.091743
[R_front_hand01_02]
9 71.020905 0.000060 0.000119 0.001860 0.001432 14.810666 71.020905
10 71.020905 0.000060 0.000119 0.001892 0.001389 17.423120 71.020905
[R_front_hand02_02]
9 71.020844 -0.000030 -0.000119 0.001860 0.001432 14.810666 71.020836
10 71.020844 -0.000030 -0.000119 0.001892 0.001389 17.423120 71.020836
[R_front_hand03_02]
9 71.020905 0.000000 0.000030 0.001860 0.001432 14.810666 71.020905
10 71.020905 0.000000 0.000030 0.001892 0.001389 17.423120 71.020905
[null_rope01_connect]
9 328.732483 0.000000 -0.000238 34.983658 -4.590847 75.423737 328.732483
10 328.732483 0.000000 -0.000238 35.294113 9.638984 78.051834 328.732483
[Rope1_Seg01]
9 0.000000 0.000000 0.000000 2.171094 -23.469105 -73.985992 0.000000
10 0.000000 0.000000 0.000000 -10.579643 -16.304747 -54.252163 0.000000
[Rope1_Seg02]
9 139.999863 -0.000179 0.000000 -14.166856 30.506207 12.860551 139.999863
10 139.999863 -0.000179 0.000000 -1.616117 23.365742 26.727953 139.999863
[Rope1_Seg03]
9 139.999924 0.000060 -0.000060 -14.557117 28.503145 27.172892 139.999924
10 139.999924 0.000060 -0.000060 3.862160 22.830105 33.666279 139.999924
[Rope1_Seg04]
9 139.999924 -0.000060 -0.000119 -6.604055 14.272557 24.312458 139.999924
10 139.999924 -0.000060 -0.000119 5.402327 15.101463 25.258148 139.999924
[Rope1_Seg05]
9 139.999832 0.000119 -0.000060 -1.184563 11.596889 26.717976 139.999832
10 139.999832 0.000119 -0.000060 5.117653 10.847283 16.889572 139.999832
[Rope1_Seg06]
9 139.999954 0.000119 -0.000060 0.518457 4.021878 11.003174 139.999954
10 139.999954 0.000119 -0.000060 1.930001 4.504335 5.926312 139.999954
[Rope1_Seg07]
9 139.999985 0.000060 0.000000 0.459551 1.783890 4.922023 139.999985
10 139.999985 0.000060 0.000000 1.082547 2.574444 3.172775 139.999985
[Rope1_Seg09]
9 121.602913 0.000119 -0.000089 -89.793175 -1.359789 0.847147 121.602913
10 121.602913 0.000119 -0.000089 -89.793175 -1.359789 0.847147 121.602913
[L_mid_hand01]
9 103.859421 1.038730 8.195221 104.352036 0.341432 -0.444596 104.187431
10 103.859421 1.038730 8.195221 104.352036 0.341479 -0.444583 104.187431
[L_mid_hand02]
9 105.572853 -4.139662 -10.864139 -135.608444 3.905721 -3.381091 106.211075
10 105.572853 -4.139662 -10.864139 -135.608444 3.905687 -3.381056 106.211075
[L_mid_hand03]
9 104.641464 17.579376 -3.913581 -18.761518 -0.324345 2.942958 106.179977
10 104.641464 17.579376 -3.913581 -18.761518 -0.324361 2.942912 106.179977
[null_rope02_connect]
9 328.732849 0.000179 -0.000119 -97.191391 -61.450550 -91.448341 328.732849
10 328.732849 0.000179 -0.000119 -69.093178 -66.823456 -121.438538 328.732849
[Rope2_Seg01]
9 -0.000064 0.000134 0.000153 -11.264844 -82.303436 -5.791594 0.000213
10 -0.000063 0.000134 0.000153 156.059433 -85.298683 -175.688049 0.000212
[Rope2_Seg02]
9 139.999741 -0.000060 -0.000119 6.342648 11.827934 19.659174 139.999756
10 139.999741 -0.000060 -0.000119 11.229769 8.801646 22.254736 139.999756
[Rope2_Seg03]
9 140.000107 0.000030 0.000000 14.153101 25.407560 45.763229 140.000107
10 140.000107 0.000030 0.000000 24.686018 22.364477 48.001869 140.000107
[Rope2_Seg04]
9 139.999802 0.000000 -0.000060 1.177976 16.369711 23.247316 139.999802
10 139.999802 0.000000 -0.000060 5.233605 18.554325 20.115074 139.999802
[Rope2_Seg05]
9 139.999985 -0.000060 0.000119 -1.689293 12.661422 8.082522 139.999985
10 139.999985 -0.000060 0.000119 -0.516260 14.318549 5.486858 139.999985
[Rope2_Seg06]
9 139.999893 -0.000030 -0.000119 -3.528873 13.263888 6.479607 139.999893
10 139.999893 -0.000030 -0.000119 -2.459602 13.933166 3.683785 139.999893
[Rope2_Seg07]
9 139.999893 0.000060 -0.000060 -3.331466 6.362038 4.887500 139.999893
10 139.999893 0.000060 -0.000060 -2.599403 6.932949 3.214760 139.999893
[Rope2_Seg09]
9 121.338966 0.000089 -0.000060 33.793236 -1.359788 -0.847141 121.338966
10 121.338966 0.000089 -0.000060 33.793236 -1.359788 -0.847141 121.338966
[R_mid_hand01]
9 104.680779 11.144459 -10.335981 -47.384243 2.963556 5.452635 105.778534
10 104.680779 11.144459 -10.335981 -47.375107 3.181660 5.654842 105.778534
[R_mid_hand02]
9 104.070427 2.443552 8.231699 75.626305 -2.250047 1.111105 104.424065
10 104.070427 2.443552 8.231699 75.620827 -2.540148 1.186644 104.424065
[R_mid_hand03]
9 106.028137 -11.221827 -5.996406 -164.381927 2.495996 -6.140564 106.788818
10 106.028137 -11.221827 -5.996406 -164.395157 2.574564 -6.425120 106.788818
[spine02]
9 129.756927 0.001550 0.000119 -0.245322 -4.052059 -4.355546 129.756927
10 129.756927 0.001550 0.000119 -0.245322 -4.052059 -4.355546 129.756927
[spine03]
9 78.613785 0.087384 -4.898860 0.369658 4.260732 -4.885719 78.766327
10 78.613792 0.087378 -4.898868 0.369659 4.260734 -4.885720 78.766335
[pelvis]
9 169.435242 0.051022 0.000000 -0.010088 -0.195973 -1.806242 169.435257
10 169.435242 0.051022 0.000000 -0.010081 -0.195593 -1.813851 169.435257
[null_rope03_connect]
9 -1.257226 -2.466202 137.391083 27.665409 40.730957 105.602051 137.418976
10 -1.257226 -2.466202 137.391083 27.990812 58.505627 106.075027 137.418976
[null_rope04_connect]
9 -1.259640 -2.480268 -137.844437 27.665409 40.730957 105.602051 137.872513
10 -1.259640 -2.480268 -137.844437 27.990812 58.505627 106.075027 137.872513
[Rope3_Seg01]
9 0.000085 0.000000 0.000104 -75.007179 -8.534331 -159.514008 0.000134
10 0.000098 0.000000 0.000098 -112.512131 5.926319 -151.583176 0.000138
[Rope3_Seg02]
9 139.999924 -0.000119 0.000060 24.612139 11.175410 -5.991603 139.999924
10 139.999924 -0.000119 0.000060 41.255966 12.151490 3.576529 139.999924
[Rope3_Seg03]
9 139.999924 -0.000119 0.000119 28.216316 15.824178 -22.521152 139.999924
10 139.999924 -0.000119 0.000119 69.018150 24.505695 -12.274951 139.999924
[Rope3_Seg04]
9 139.999924 0.000119 0.000000 10.135070 1.480638 -33.580341 139.999924
10 139.999924 0.000119 0.000000 13.044063 -4.557835 -33.005852 139.999924
[Rope3_Seg05]
9 139.999924 -0.000238 0.000060 1.415904 -0.271069 -27.233135 139.999924
10 139.999924 -0.000238 0.000060 4.307672 -7.005685 -26.823626 139.999924
[Rope3_Seg06]
9 139.999893 -0.000119 -0.000060 -3.108965 0.990534 -20.202076 139.999893
10 139.999893 -0.000119 -0.000060 0.612076 -5.099356 -19.717041 139.999893
[Rope3_Seg07]
9 139.999771 0.000060 -0.000119 -2.375906 0.578146 -9.032732 139.999771
10 139.999771 0.000060 -0.000119 -0.330609 -2.438785 -8.611849 139.999771
[Rope3_Seg08]
9 139.999985 -0.000060 0.000000 -1.266698 0.418041 -4.420848 139.999985
10 139.999985 -0.000060 0.000000 -0.118120 -1.185515 -4.207067 139.999985
[Rope3_Seg09]
9 90.185997 -0.000179 -0.000060 89.793228 -1.359877 -0.847183 90.185997
10 90.185997 -0.000179 -0.000060 89.793228 -1.359877 -0.847183 90.185997
[R_rear_hand01]
9 103.366196 -6.073594 -10.757982 -166.970291 21.129854 -46.704182 104.101845
10 103.366196 -6.073594 -10.757982 -164.449982 19.387613 -39.430145 104.101845
[R_rear_hand02]
9 100.509819 12.039542 -7.992327 -28.148870 27.804201 44.102722 101.543350
10 100.509819 12.039542 -7.992327 -31.145708 24.319061 37.292130 101.543350
[R_rear_hand03]
9 101.539970 5.215704 5.435467 81.628380 -47.127724 10.016966 101.819031
10 101.539970 5.215704 5.435467 82.550941 -40.154560 8.684566 101.819031
[Rope4_Seg01]
9 -0.000016 -0.000052 -0.000153 46.996178 6.915240 -99.917145 0.000162
10 -0.000016 -0.000049 -0.000153 47.927742 7.641307 -90.335342 0.000161
[Rope4_Seg02]
9 139.999985 0.000060 0.000119 -4.746543 7.826967 -44.312374 139.999985
10 139.999985 0.000060 0.000119 2.645977 17.168964 -39.988750 139.999985
[Rope4_Seg03]
9 139.999924 0.000000 -0.000238 -14.509219 13.511378 -45.729561 139.999924
10 139.999924 0.000000 -0.000238 -2.477974 17.351213 -48.019794 139.999924
[Rope4_Seg04]
9 139.999985 0.000000 0.000119 -4.156395 2.579293 -15.753555 139.999985
10 139.999985 0.000000 0.000119 -0.292832 -0.105745 -16.499487 139.999985
[Rope4_Seg05]
9 139.999802 -0.000060 -0.000119 -4.647242 -2.459153 -15.837279 139.999802
10 139.999802 -0.000060 -0.000119 -1.153748 -6.638700 -14.706240 139.999802
[Rope4_Seg06]
9 139.999924 0.000000 0.000060 -5.051108 -0.485069 -11.113361 139.999924
10 139.999924 0.000000 0.000060 -2.593693 -4.020665 -10.415991 139.999924
[Rope4_Seg07]
9 139.999802 0.000000 0.000000 -3.514328 0.796607 -6.225808 139.999802
10 139.999802 0.000000 0.000000 -2.356172 -1.401298 -6.067228 139.999802
[Rope4_Seg08]
9 139.999924 0.000000 0.000119 -3.777314 0.702328 -3.674083 139.999924
10 139.999924 0.000000 0.000119 -3.208416 -0.679378 -3.636291 139.999924
[Rope4_Seg09]
9 90.185791 0.000060 0.000060 -135.617828 2.228885 0.850567 90.185791
10 90.185791 0.000060 0.000060 -135.617828 2.228885 0.850567 90.185791
[L_rear_hand01]
9 101.696655 -8.392275 -7.654577 -27.705481 -28.251705 134.947800 102.329041
10 101.696655 -8.392275 -7.654577 -31.051279 -24.449524 142.474380 102.329041
[L_rear_hand02]
9 102.726799 -1.568258 5.773216 81.477219 48.065086 169.775513 102.900848
10 102.726799 -1.568258 5.773216 82.520493 40.398952 171.273941 102.900848
[L_rear_hand03]
9 104.552910 9.721220 -10.420293 -167.330078 -21.338425 -132.303940 105.519653
10 104.552910 9.721220 -10.420293 -164.531235 -19.454706 -140.315262 105.519653
